<svg xmlns="http://www.w3.org/2000/svg" viewBox="0 0 520 520" role="img" aria-label="Mobile accessories set">
  <rect width="520" height="520" rx="44" fill="#f8fafc"/>
  <circle cx="106" cy="106" r="76" fill="#dbeafe"/>
  <circle cx="426" cy="412" r="96" fill="#ffedd5"/>
  <g filter="url(#shadow)">
    <rect x="88" y="260" width="160" height="108" rx="28" fill="#111827"/>
    <rect x="116" y="286" width="104" height="56" rx="16" fill="#374151"/>
    <path d="M170 259v-52c0-30 24-54 54-54h70" fill="none" stroke="#2563eb" stroke-width="20" stroke-linecap="round"/>
    <rect x="286" y="132" width="110" height="170" rx="32" fill="url(#charger)"/>
    <rect x="316" y="108" width="22" height="42" rx="8" fill="#111827"/>
    <rect x="348" y="108" width="22" height="42" rx="8" fill="#111827"/>
    <circle cx="331" cy="350" r="48" fill="#7c3aed"/>
    <circle cx="331" cy="350" r="22" fill="#fff"/>
    <path d="M382 348c35 12 53 35 53 68" fill="none" stroke="#f97316" stroke-width="18" stroke-linecap="round"/>
  </g>
  <defs>
    <linearGradient id="charger" x1="286" x2="396" y1="132" y2="302">
      <stop stop-color="#fff"/>
      <stop offset="1" stop-color="#bfdbfe"/>
    </linearGradient>
    <filter id="shadow" x="42" y="70" width="430" height="410" color-interpolation-filters="sRGB">
      <feDropShadow dx="0" dy="26" stdDeviation="24" flood-color="#111827" flood-opacity=".16"/>
    </filter>
  </defs>
</svg>
