<svg xmlns="http://www.w3.org/2000/svg" viewBox="0 0 520 520" role="img" aria-label="Aurora designer mobile cover">
  <rect width="520" height="520" rx="44" fill="#f5f7ff"/>
  <circle cx="96" cy="92" r="70" fill="#dbeafe"/>
  <circle cx="430" cy="420" r="92" fill="#fed7aa"/>
  <g filter="url(#shadow)">
    <rect x="170" y="55" width="190" height="390" rx="42" fill="url(#case)"/>
    <rect x="188" y="74" width="154" height="352" rx="31" fill="none" stroke="rgba(255,255,255,.48)" stroke-width="9"/>
    <rect x="203" y="96" width="66" height="66" rx="22" fill="rgba(255,255,255,.42)"/>
    <circle cx="223" cy="118" r="11" fill="#111827" opacity=".35"/>
    <circle cx="249" cy="140" r="11" fill="#111827" opacity=".28"/>
    <path d="M206 302c36-74 80-105 132-94v145c-49 23-93 6-132-51Z" fill="rgba(255,255,255,.25)"/>
    <path d="M197 239c39-41 87-57 145-48" fill="none" stroke="#fff" stroke-width="13" stroke-linecap="round" opacity=".35"/>
  </g>
  <defs>
    <linearGradient id="case" x1="160" x2="370" y1="70" y2="430">
      <stop stop-color="#2563eb"/>
      <stop offset=".45" stop-color="#7c3aed"/>
      <stop offset="1" stop-color="#f97316"/>
    </linearGradient>
    <filter id="shadow" x="110" y="20" width="300" height="470" color-interpolation-filters="sRGB">
      <feDropShadow dx="0" dy="26" stdDeviation="24" flood-color="#111827" flood-opacity=".2"/>
    </filter>
  </defs>
</svg>
